<svg xmlns="http://www.w3.org/2000/svg" width="560" height="451" font-family="Segoe UI, sans-serif">
<rect width="560" height="451" fill="#0e1217"/>
<text x="280" y="26" fill="#e8eef5" font-size="17" font-weight="600" text-anchor="middle">Vial tower height: 1 lid vs lid-per-layer</text>
<rect x="90" y="273.7" width="120" height="106.9" fill="#3f5366" stroke="#1d2733" stroke-width="1.5" rx="3"/>
<rect x="90" y="166.8" width="120" height="106.9" fill="#4a6b86" stroke="#1d2733" stroke-width="1.5" rx="3"/>
<rect x="90" y="60.0" width="120" height="106.9" fill="#3f5366" stroke="#1d2733" stroke-width="1.5" rx="3"/>
<rect x="85" y="50.0" width="130" height="10.0" fill="#3f9e6b" stroke="#1d5b3a" stroke-width="1.5" rx="2"/>
<rect x="85" y="50.0" width="130" height="27.5" fill="none" stroke="#1d5b3a" stroke-width="1" stroke-dasharray="3 3" opacity="0.55"/>
<rect x="360" y="273.7" width="120" height="106.9" fill="#3f5366" stroke="#1d2733" stroke-width="1.5" rx="3"/>
<rect x="355" y="263.7" width="130" height="10.0" fill="#3f9e6b" stroke="#1d5b3a" stroke-width="1.5" rx="2"/>
<rect x="355" y="263.7" width="130" height="27.5" fill="none" stroke="#1d5b3a" stroke-width="1" stroke-dasharray="3 3" opacity="0.55"/>
<rect x="360" y="156.8" width="120" height="106.9" fill="#4a6b86" stroke="#1d2733" stroke-width="1.5" rx="3"/>
<rect x="355" y="146.8" width="130" height="10.0" fill="#3f9e6b" stroke="#1d5b3a" stroke-width="1.5" rx="2"/>
<rect x="355" y="146.8" width="130" height="27.5" fill="none" stroke="#1d5b3a" stroke-width="1" stroke-dasharray="3 3" opacity="0.55"/>
<rect x="360" y="40.0" width="120" height="106.9" fill="#3f5366" stroke="#1d2733" stroke-width="1.5" rx="3"/>
<rect x="355" y="30.0" width="130" height="10.0" fill="#3f9e6b" stroke="#1d5b3a" stroke-width="1.5" rx="2"/>
<rect x="355" y="30.0" width="130" height="27.5" fill="none" stroke="#1d5b3a" stroke-width="1" stroke-dasharray="3 3" opacity="0.55"/>
<line x1="40" y1="380.6" x2="520" y2="380.6" stroke="#2a3340" stroke-width="1.5"/>
<line x1="60" y1="50.0" x2="225" y2="50.0" stroke="#9aa7b5" stroke-width="1" stroke-dasharray="4 3"/>
<line x1="330" y1="30.0" x2="500" y2="30.0" stroke="#9aa7b5" stroke-width="1" stroke-dasharray="4 3"/>
<text x="150" y="403" fill="#cdd6e0" font-size="13" text-anchor="middle">v3 sleeveless</text>
<text x="150" y="421" fill="#8fb0c9" font-size="12" text-anchor="middle">3 trays + 1 lid = 132 mm</text>
<text x="420" y="403" fill="#cdd6e0" font-size="13" text-anchor="middle">v4 lidded</text>
<text x="420" y="421" fill="#7fd3a3" font-size="12" text-anchor="middle">3 trays + 3 lids = 140 mm</text>
<line x1="505" y1="30.0" x2="505" y2="50.0" stroke="#e0b341" stroke-width="2"/>
<text x="513" y="44.0" fill="#e0b341" font-size="12">+8 mm</text>
<text x="513" y="60.0" fill="#e0b341" font-size="10">(+6%)</text>
<rect x="40" y="429" width="14" height="14" fill="#3f9e6b" rx="2"/>
<text x="60" y="440" fill="#aebccb" font-size="11">lid (dashed skirt telescopes over tray = free height; only the 4 mm plate adds height)</text>
</svg>